<mxfile host="app.diagrams.net" agent="Mozilla/5.0 (Windows NT 10.0; Win64; x64) AppleWebKit/537.36 (KHTML, like Gecko) Chrome/129.0.0.0 Safari/537.36" version="24.7.16">
  <diagram name="第 1 页" id="Uymzaz3JeZ9fraL9nddr">
    <mxGraphModel dx="1207" dy="711" grid="1" gridSize="6" guides="1" tooltips="1" connect="1" arrows="1" fold="1" page="1" pageScale="1" pageWidth="4681" pageHeight="3300" math="0" shadow="0">
      <root>
        <mxCell id="0" />
        <mxCell id="1" parent="0" />
        <mxCell id="L5mioAHmbzhNOaYdM3QG-4" value="" style="rounded=0;whiteSpace=wrap;html=1;" vertex="1" parent="1">
          <mxGeometry x="414" y="234" width="510" height="408" as="geometry" />
        </mxCell>
        <mxCell id="L5mioAHmbzhNOaYdM3QG-24" value="" style="verticalLabelPosition=bottom;verticalAlign=top;html=1;shape=mxgraph.basic.rect;fillColor2=none;strokeWidth=1;size=20;indent=5;" vertex="1" parent="1">
          <mxGeometry x="438" y="522" width="462" height="84" as="geometry" />
        </mxCell>
        <mxCell id="L5mioAHmbzhNOaYdM3QG-1" value="" style="rounded=0;whiteSpace=wrap;html=1;" vertex="1" parent="1">
          <mxGeometry x="162" y="234" width="156" height="414" as="geometry" />
        </mxCell>
        <mxCell id="L5mioAHmbzhNOaYdM3QG-2" value="" style="shape=actor;whiteSpace=wrap;html=1;" vertex="1" parent="1">
          <mxGeometry x="216" y="246" width="36" height="42" as="geometry" />
        </mxCell>
        <mxCell id="L5mioAHmbzhNOaYdM3QG-3" value="WeChat" style="rounded=0;whiteSpace=wrap;html=1;" vertex="1" parent="1">
          <mxGeometry x="180" y="336" width="120" height="60" as="geometry" />
        </mxCell>
        <mxCell id="L5mioAHmbzhNOaYdM3QG-5" value="" style="rounded=0;whiteSpace=wrap;html=1;" vertex="1" parent="1">
          <mxGeometry x="438" y="288" width="132" height="210" as="geometry" />
        </mxCell>
        <mxCell id="L5mioAHmbzhNOaYdM3QG-6" value="" style="rounded=0;whiteSpace=wrap;html=1;" vertex="1" parent="1">
          <mxGeometry x="622" y="288" width="276" height="210" as="geometry" />
        </mxCell>
        <mxCell id="L5mioAHmbzhNOaYdM3QG-7" value="系统管理" style="text;html=1;align=center;verticalAlign=middle;whiteSpace=wrap;rounded=0;" vertex="1" parent="1">
          <mxGeometry x="468" y="300" width="60" height="30" as="geometry" />
        </mxCell>
        <mxCell id="L5mioAHmbzhNOaYdM3QG-9" value="用户管理" style="rounded=0;whiteSpace=wrap;html=1;" vertex="1" parent="1">
          <mxGeometry x="453" y="336" width="102" height="36" as="geometry" />
        </mxCell>
        <mxCell id="L5mioAHmbzhNOaYdM3QG-11" value="设备管理" style="text;html=1;align=center;verticalAlign=middle;whiteSpace=wrap;rounded=0;" vertex="1" parent="1">
          <mxGeometry x="634" y="300" width="60" height="30" as="geometry" />
        </mxCell>
        <mxCell id="L5mioAHmbzhNOaYdM3QG-12" value="设备绑定" style="rounded=0;whiteSpace=wrap;html=1;" vertex="1" parent="1">
          <mxGeometry x="643" y="336" width="102" height="36" as="geometry" />
        </mxCell>
        <mxCell id="L5mioAHmbzhNOaYdM3QG-14" value="设备控制" style="rounded=0;whiteSpace=wrap;html=1;" vertex="1" parent="1">
          <mxGeometry x="775" y="336" width="102" height="36" as="geometry" />
        </mxCell>
        <mxCell id="L5mioAHmbzhNOaYdM3QG-15" value="设备日志" style="rounded=0;whiteSpace=wrap;html=1;" vertex="1" parent="1">
          <mxGeometry x="643" y="396" width="102" height="36" as="geometry" />
        </mxCell>
        <mxCell id="L5mioAHmbzhNOaYdM3QG-16" value="设备状态" style="rounded=0;whiteSpace=wrap;html=1;" vertex="1" parent="1">
          <mxGeometry x="775" y="396" width="102" height="36" as="geometry" />
        </mxCell>
        <mxCell id="L5mioAHmbzhNOaYdM3QG-17" value="Admin" style="text;html=1;align=center;verticalAlign=middle;whiteSpace=wrap;rounded=0;" vertex="1" parent="1">
          <mxGeometry x="414" y="234" width="60" height="30" as="geometry" />
        </mxCell>
        <mxCell id="L5mioAHmbzhNOaYdM3QG-21" value="mysql" style="shape=datastore;whiteSpace=wrap;html=1;" vertex="1" parent="1">
          <mxGeometry x="486" y="534" width="60" height="60" as="geometry" />
        </mxCell>
        <mxCell id="L5mioAHmbzhNOaYdM3QG-22" value="redis" style="shape=datastore;whiteSpace=wrap;html=1;" vertex="1" parent="1">
          <mxGeometry x="606" y="534" width="60" height="60" as="geometry" />
        </mxCell>
        <mxCell id="L5mioAHmbzhNOaYdM3QG-25" value="oss" style="shape=datastore;whiteSpace=wrap;html=1;" vertex="1" parent="1">
          <mxGeometry x="726" y="534" width="60" height="60" as="geometry" />
        </mxCell>
        <mxCell id="L5mioAHmbzhNOaYdM3QG-28" style="edgeStyle=orthogonalEdgeStyle;rounded=0;orthogonalLoop=1;jettySize=auto;html=1;exitX=0.25;exitY=1;exitDx=0;exitDy=0;entryX=0.073;entryY=-0.036;entryDx=0;entryDy=0;entryPerimeter=0;" edge="1" parent="1" source="L5mioAHmbzhNOaYdM3QG-5" target="L5mioAHmbzhNOaYdM3QG-24">
          <mxGeometry relative="1" as="geometry" />
        </mxCell>
        <mxCell id="L5mioAHmbzhNOaYdM3QG-29" style="edgeStyle=orthogonalEdgeStyle;rounded=0;orthogonalLoop=1;jettySize=auto;html=1;exitX=0.75;exitY=1;exitDx=0;exitDy=0;entryX=0.211;entryY=-0.02;entryDx=0;entryDy=0;entryPerimeter=0;" edge="1" parent="1" source="L5mioAHmbzhNOaYdM3QG-5" target="L5mioAHmbzhNOaYdM3QG-24">
          <mxGeometry relative="1" as="geometry" />
        </mxCell>
        <mxCell id="L5mioAHmbzhNOaYdM3QG-30" style="edgeStyle=orthogonalEdgeStyle;rounded=0;orthogonalLoop=1;jettySize=auto;html=1;exitX=0.25;exitY=1;exitDx=0;exitDy=0;entryX=0.553;entryY=-0.02;entryDx=0;entryDy=0;entryPerimeter=0;" edge="1" parent="1" source="L5mioAHmbzhNOaYdM3QG-6" target="L5mioAHmbzhNOaYdM3QG-24">
          <mxGeometry relative="1" as="geometry" />
        </mxCell>
        <mxCell id="L5mioAHmbzhNOaYdM3QG-31" style="edgeStyle=orthogonalEdgeStyle;rounded=0;orthogonalLoop=1;jettySize=auto;html=1;exitX=0.75;exitY=1;exitDx=0;exitDy=0;entryX=0.841;entryY=0.012;entryDx=0;entryDy=0;entryPerimeter=0;" edge="1" parent="1" source="L5mioAHmbzhNOaYdM3QG-6" target="L5mioAHmbzhNOaYdM3QG-24">
          <mxGeometry relative="1" as="geometry" />
        </mxCell>
        <mxCell id="L5mioAHmbzhNOaYdM3QG-32" value="。。。" style="text;html=1;align=center;verticalAlign=middle;whiteSpace=wrap;rounded=0;" vertex="1" parent="1">
          <mxGeometry x="204" y="420" width="60" height="30" as="geometry" />
        </mxCell>
      </root>
    </mxGraphModel>
  </diagram>
</mxfile>
